<?xml version="1.0" encoding="UTF-8" standalone="no"?>
<!-- Generator: Adobe Illustrator 15.0.2, SVG Export Plug-In  -->

<svg
   xmlns:dc="http://purl.org/dc/elements/1.1/"
   xmlns:cc="http://creativecommons.org/ns#"
   xmlns:rdf="http://www.w3.org/1999/02/22-rdf-syntax-ns#"
   xmlns:svg="http://www.w3.org/2000/svg"
   xmlns="http://www.w3.org/2000/svg"
   xmlns:sodipodi="http://sodipodi.sourceforge.net/DTD/sodipodi-0.dtd"
   xmlns:inkscape="http://www.inkscape.org/namespaces/inkscape"
   version="1.1"
   viewBox="0 0 188 123"
   id="svg2"
   inkscape:version="0.91 r13725"
   sodipodi:docname="logo01.svg">
  <metadata
     id="metadata10">
    <rdf:RDF>
      <cc:Work
         rdf:about="">
        <dc:format>image/svg+xml</dc:format>
        <dc:type
           rdf:resource="http://purl.org/dc/dcmitype/StillImage" />
      </cc:Work>
    </rdf:RDF>
  </metadata>
  <defs
     id="defs8" />
  <sodipodi:namedview
     pagecolor="#ffffff"
     bordercolor="#666666"
     borderopacity="1"
     objecttolerance="10"
     gridtolerance="10"
     guidetolerance="10"
     inkscape:pageopacity="0"
     inkscape:pageshadow="2"
     inkscape:window-width="690"
     inkscape:window-height="480"
     id="namedview6"
     showgrid="false"
     inkscape:zoom="1.5319149"
     inkscape:cx="94"
     inkscape:cy="61.5"
     inkscape:window-x="0"
     inkscape:window-y="0"
     inkscape:window-maximized="0"
     inkscape:current-layer="svg2" />
  <path
     d="M188.3,113.139c-2.37,0.2-3.91-2.65-4.77-4.19c-3.07-5.46-5.62-11.94-9.55-18.33c-7.05-11.45-12.84-24.67-21.22-35.08  c-4.15-5.16-8.53-13.51-12.2-16.24c-6.44-4.79-12.73,1.5-17.5,5.24c-4.2,3.29-7.59,6.11-11.14,8.9c0.71,2.27,2.68,3.29,3.71,5.24  c-1.24,0.5-2.86-3.1-4.24-4.19c-9.97,7.44-19.07,15.74-29.18,23.04c5.73-9.54,18.3-16.85,27.06-25.14  c-5.27-8.81-15.02-15.66-16.98-27.75c-0.29-1.82,0.52-4.37,0-6.28c-1.97-7.23-11.06-10.07-14.32-15.71  c-25.27,8.56-34.98,35.29-51.98,50.27c5.73-1.57,7.18-3.55,12.73-2.1c2.32,0.45-0.29,2.73,1.06,3.67  c7.36,0.29,14.44-2.47,21.22,2.09c0.18,5.43-6.93,3.36-10.08,4.19c-2.16,3.98-4.24,8.04-11.67,6.81  c-4.92,2.87-5.56,10.36-2.65,15.71c7.43-1.09,10.39-5.33,16.44-9.95c3.47-2.65,8.77-8.39,12.2-8.38c2.51,0.01,5.18,3.57,7.96,5.76  c18.05,14.27,33.25,34.89,44.55,52.37c-7.79-4.46-11.05-14.41-16.97-21.47c-5.14-6.13-11.6-11.81-16.97-17.81  c-5.64-6.28-11.79-11.64-18.57-16.23c-13.74,7.73-23.35,19.54-37.13,27.23c-0.99,1.29-1.66,2.9-2.65,4.19  c-7.91,0.75-8.86,8.36-14.85,11c2.08-5,8.5-9.42,13.26-14.14c1.8-1.8,7.15-7.66,7.42-8.9c0.77-3.48-2.13-6.56-2.12-11  c-3.38-1.78-3.91,2.41-7.42,2.09c-1.08-1.57,0.46-4.18,3.18-3.66c-2.47-1.34,0.38-1.96,0.53-3.67c-2.5-0.02-2.71,2.21-4.25,3.14  c-1.22-1.72,1.59-3.08,2.13-4.71c-2.44,0.48-2.57-1.31-4.78-1.05c-1.7,6.35-4.73,11.39-8.48,15.71c2.03-5.69,6.21-11.97,6.89-17.28  c-4.63,0.24-4.08,8.92-7.42,12.05c-1.88-2.08,1.41-6-1.07-7.33c1.4-0.16,1.75,0.72,1.6,2.09c2.08-1.79,0.5-4.25-0.53-6.28  c3.19,0.03,5.64-1.55,7.42-4.19c3.74,0.68,7.86-3.38,11.67-2.62c0.46-3.07-2.45-2.82-4.77-3.14c1.14-2.45,4.15,0.24,6.36,0  c0.46-1.22-1.85-2.26-0.53-2.62c-9.04-3.65-10.56,9.33-19.62,7.33c-0.89,4.19-3.96,6.22-6.37,8.9c0.86,1.64,1.68-1.07,2.65-1.04  c0.37,2.09-4.62,7.35-6.36,5.76c0-0.35,0-0.7,0-1.05c1.14-6.56,7.15-8.31,9.02-14.14c2.33,1.14,3.94,0.2,7.95-0.52  c0.55-1.21,1.83-1.69,1.59-3.67c2.96-0.32,3.43-1.84,5.31-3.67c7.36-7.15,12.93-13.33,18.56-21.99c6.3-9.68,14.85-18.36,22.28-24.09  c2.86-2.21,9.34-6.71,12.73-6.28c2.69,0.34,4.33,3.84,6.37,5.76c3.69,3.47,9.29,6.82,11.13,11.52c-0.03,14.4,8.39,24.37,15.39,33.51  c10.28-2.85,14.27-18.1,27.58-15.71c5.92,1.07,8.89,7.92,12.73,13.09c3.12,4.22,7.36,8.14,9.55,11.53  C171.29,76.938,179.35,99.069,188.3,113.139z M59.41,57.629c-5.47-3.34-10.99-0.89-15.92-2.09c-0.85,1.77-3.34,1.93-3.71,4.19  c-1.77-0.24-0.54-2.26,0.53-2.62c-2.83-1.22-4.26,3.47-6.36,4.71c-0.58-0.13-0.36-1.04-1.07-1.05c-0.43-4.79,5.9-2.9,4.78-8.38  c-2.93,1.38-5.21-1.79-7.43,1.05c3.33,2.27-0.96,6.18,1.06,9.95c-4.08-3.46-9.02,0.1-12.73,1.57c1.57,2.64,7.26,1.22,11.14,1.57  c2.09-0.31-0.13,3.63,2.12,3.15c0-1.75,0-3.5,0-5.24c1.05,0.36,1.42,1.4,1.59,2.62c2.09-0.39,1.27-3.64,3.19-4.19  c1.82,3.21-2.23,5.12-2.12,8.38c1.99-1.18,2.16-4.15,4.24-5.24c4.13,1.66,7.55-1.05,9.02-3.67c-0.52-0.01-0.42-0.64-0.53-1.04  c-2.44-0.39-3.69,2.26-5.84,0.52C46.85,58.839,54.07,60.009,59.41,57.629z M30.23,74.909c-0.06-2.21-1.91-2.65-2.65-4.19  c-0.79,0.45-0.77,1.69-1.06,2.62C27.85,73.779,28.6,74.779,30.23,74.909z"
     id="path4"
     style="fill:#70c9e3;fill-opacity:1" />
</svg>
