<?xml version="1.0" encoding="UTF-8" standalone="no"?>
<!-- Created with Inkscape (http://www.inkscape.org/) -->

<svg
   xmlns:dc="http://purl.org/dc/elements/1.1/"
   xmlns:cc="http://creativecommons.org/ns#"
   xmlns:rdf="http://www.w3.org/1999/02/22-rdf-syntax-ns#"
   xmlns:svg="http://www.w3.org/2000/svg"
   xmlns="http://www.w3.org/2000/svg"
   xmlns:sodipodi="http://sodipodi.sourceforge.net/DTD/sodipodi-0.dtd"
   xmlns:inkscape="http://www.inkscape.org/namespaces/inkscape"
   width="210mm"
   height="297mm"
   viewBox="0 0 744.09448819 1052.3622047"
   id="svg2"
   version="1.1"
   inkscape:version="0.91 r13725"
   sodipodi:docname="PDFIcon.svg">
  <defs
     id="defs4" />
  <sodipodi:namedview
     id="base"
     pagecolor="#ffffff"
     bordercolor="#666666"
     borderopacity="1.0"
     inkscape:pageopacity="0.0"
     inkscape:pageshadow="2"
     inkscape:zoom="1.4"
     inkscape:cx="364.4591"
     inkscape:cy="572.39181"
     inkscape:document-units="px"
     inkscape:current-layer="layer1"
     showgrid="false"
     borderlayer="false"
     inkscape:window-width="1920"
     inkscape:window-height="1027"
     inkscape:window-x="-8"
     inkscape:window-y="-8"
     inkscape:window-maximized="1" />
  <metadata
     id="metadata7">
    <rdf:RDF>
      <cc:Work
         rdf:about="">
        <dc:format>image/svg+xml</dc:format>
        <dc:type
           rdf:resource="http://purl.org/dc/dcmitype/StillImage" />
        <dc:title></dc:title>
      </cc:Work>
    </rdf:RDF>
  </metadata>
  <g
     inkscape:groupmode="layer"
     id="layer3"
     inkscape:label="Layer 2">
    <path
       style="fill:#ffffff;fill-rule:evenodd;stroke:#ffffff;stroke-width:1px;stroke-linecap:butt;stroke-linejoin:miter;stroke-opacity:0.13548388;fill-opacity:1"
       d="M 188.57143,305.93363 189.28571,732.3622 540,731.64792 540,400.93363 445.71429,304.50506 Z"
       id="path5623"
       inkscape:connector-curvature="0"
       inkscape:export-xdpi="90"
       inkscape:export-ydpi="90" />
  </g>
  <g
     inkscape:label="Layer 1"
     inkscape:groupmode="layer"
     id="layer1">
    <g
       id="g4147"
       transform="translate(-0.71428691,16.428572)"
       inkscape:export-xdpi="90"
       inkscape:export-ydpi="90">
      <path
         style="fill:#f4a3a6"
         d="m 370.40279,709.51453 c -19.76617,-23.81175 -35.93851,-44.20237 -35.93851,-45.3125 0,-1.72232 2.38379,-2.1101 16.25,-2.64341 l 16.25,-0.625 0.625,-46.25 0.625,-46.25 40,0 40,0 0.625,46.25 0.625,46.25 16.25,0.625 c 13.76586,0.52946 16.22906,0.9258 16.11303,2.59271 -0.12767,1.83374 -63.54616,79.6444 -69.9666,85.84479 -1.60178,1.54688 -3.49892,2.8125 -4.21586,2.8125 -0.71695,0 -17.47587,-19.48234 -37.24206,-43.29409 z m -180.31351,-206.08091 0,-214.375 129.06875,0 129.06875,0 46.55625,46.56867 46.55625,46.56867 0,167.80632 0,167.80634 -40.55123,0 c -23.06976,0 -40.85488,-0.49132 -41.25561,-1.13971 -0.38741,-0.62684 2.44735,-4.98622 6.29948,-9.6875 l 7.00385,-8.54779 23.93926,-0.625 23.93925,-0.625 0.31764,-147.1875 0.31765,-147.1875 -38.79529,0 c -43.46932,0 -46.05331,-0.40198 -48.54585,-7.55207 -0.94745,-2.71788 -1.41915,-17.71963 -1.41915,-45.13446 l 0,-41.06347 -111.25,0 -111.25,0 0,28.125 0,28.125 103.64777,0 c 57.00627,0 104.53752,0.34143 105.62499,0.75874 1.6345,0.62721 1.98675,3.17319 2.0321,14.6875 0.0996,25.30624 5.17636,31.73922 26.19514,33.19358 l 10.625,0.73518 0.3335,35 c 0.30296,31.79554 0.13802,35.14306 -1.80141,36.5625 -1.6735,1.2248 -28.56052,1.5625 -124.40314,1.5625 l -122.26823,0 0.31964,104.6875 0.31964,104.6875 65.84146,0.3235 65.84145,0.3235 6.97105,7.94013 c 3.83407,4.36707 6.97104,8.86212 6.97104,9.989 0,1.87796 -6.93425,2.04887 -83.125,2.04887 l -83.125,0 0,-214.375 z m 41.51877,-54.6875 0.35623,-12.8125 12.10645,-0.86349 c 13.20328,-0.94171 17.76761,-2.64765 22.66895,-8.47256 8.75975,-10.41036 3.50462,-30.29506 -8.91825,-33.74541 -2.53393,-0.70378 -12.62278,-1.28273 -22.41965,-1.28657 l -17.8125,-0.007 0,35 0,35 6.83127,0 6.83127,0 0.35623,-12.8125 z m 2.54373,-26.02773 c -2.50694,-0.96196 -2.8125,-1.93915 -2.8125,-8.99449 0,-4.48966 0.64918,-8.56446 1.5,-9.41528 2.06022,-2.06022 12.6547,-1.88674 17.87066,0.29263 6.70739,2.80252 7.76169,11.64985 1.87934,15.77083 -3.63477,2.5464 -14.35932,3.91118 -18.4375,2.34631 z m 93.50041,34.8713 c 3.98667,-2.34376 6.7907,-5.33473 9.375,-10 3.48318,-6.28797 3.68709,-7.45105 3.68709,-21.03107 0,-13.58002 -0.20391,-14.7431 -3.68709,-21.03108 -2.5843,-4.66526 -5.38833,-7.65624 -9.375,-10 -5.50563,-3.23676 -6.3088,-3.34392 -25.06291,-3.34392 l -19.375,0 -0.33383,33.10544 c -0.1836,18.20799 -0.0413,33.86781 0.3163,34.79961 0.51781,1.34941 4.52859,1.60777 19.70882,1.26956 18.02549,-0.40159 19.36706,-0.6059 24.74662,-3.76854 z m -28.50041,-8.10892 c -1.16791,-0.47126 -1.5625,-6.25249 -1.5625,-22.89257 0,-25.00591 -0.5043,-23.78106 9.78973,-23.77764 6.92007,0.002 13.41726,3.02308 16.99642,7.90222 2.19697,2.99495 2.58885,5.36013 2.58885,15.625 0,14.36421 -2.33,19.87959 -9.43673,22.33779 -4.32856,1.49724 -15.45271,1.98468 -18.37577,0.8052 z m 69.6875,-2.92215 0.625,-14.375 14.0625,-0.35344 14.0625,-0.35343 0,-5.54313 0,-5.54312 -14.0625,-0.35344 -14.0625,-0.35344 0,-8.125 0,-8.125 16.25,-0.625 16.25,-0.625 0,-5 0,-5 -23.75,0 -23.75,0 -0.33383,33.10544 c -0.18359,18.20799 -0.0492,33.84697 0.29853,34.75331 0.43978,1.14603 2.63513,1.53266 7.20883,1.26956 l 6.57647,-0.37831 0.625,-14.375 z m 136.25,-65.92606 c 0,-1.22562 -49.07573,-50.32394 -50.30078,-50.32394 -1.16607,0 -1.27928,49.25327 -0.11587,50.41667 1.14855,1.14857 50.41665,1.05795 50.41665,-0.0927 z"
         id="path4161"
         inkscape:connector-curvature="0" />
      <path
         style="fill:#9c9d9e"
         d="m 395.45118,737.50167 c -6.94485,-8.42492 -23.0861,-27.96674 -35.86945,-43.42625 -12.78335,-15.4595 -23.24245,-28.80207 -23.24245,-29.65015 0,-1.12369 4.32313,-1.63685 15.9375,-1.8918 l 15.9375,-0.34985 0.625,-46.25 0.625,-46.25 38.75,0 38.75,0 0.625,46.25 0.625,46.25 15.625,0.625 c 11.16605,0.44664 15.625,1.06245 15.625,2.15791 0,0.8431 -8.97951,12.37435 -19.95447,25.625 -10.97497,13.25065 -26.68014,32.24834 -34.90041,42.21709 -8.22026,9.96875 -15.30262,18.54938 -15.73857,19.06805 -0.43595,0.51868 -6.4748,-5.95007 -13.41965,-14.375 z m -205.3619,-234.05913 0,-214.38392 129.06875,0 129.06875,0 46.55625,46.56867 46.55625,46.56867 0,167.80632 0,167.80634 -40.625,0 c -34.56578,0 -40.625,-0.26905 -40.625,-1.80386 0,-0.99213 3.12897,-5.49213 6.95327,-10 l 6.95329,-8.19614 23.46779,0 23.4678,0 0.82892,-58.33031 c 1.42892,-100.55049 1.04813,-234.70048 -0.67107,-236.41969 -1.10441,-1.10441 -12.09046,-1.5 -41.65711,-1.5 l -40.1571,0 -2.7179,-2.89306 c -2.67753,-2.8501 -2.71789,-3.50765 -2.71789,-44.27277 0,-22.75883 -0.34143,-42.26946 -0.75874,-43.35694 -0.68398,-1.78246 -11.70461,-1.97723 -111.875,-1.97723 l -111.11626,0 0,26.77277 c 0,14.72502 -0.34143,27.66252 -0.75874,28.75 -0.68811,1.79319 8.90117,1.97723 103.02277,1.97723 57.07982,0 104.67126,0.34143 105.75873,0.75874 1.64334,0.6306 1.97724,3.17048 1.97724,15.04014 0,15.73057 1.19214,20.1354 7.0125,25.91057 4.94595,4.90754 8.2395,6.05512 19.8625,6.92078 l 10,0.74477 0,34.375 0,34.375 -123.33359,0.625 c -67.83346,0.34375 -123.72565,1.01719 -124.20485,1.49653 -0.4792,0.47933 -0.45215,48.15121 0.0601,105.9375 l 0.93138,105.06597 65.9913,0 65.99131,0 6.97935,8.40845 c 3.83865,4.62464 6.78755,8.98401 6.55312,9.6875 -0.28346,0.85054 -28.13529,1.38674 -83.13469,1.60047 l -82.70844,0.32143 0,-214.38393 z m 42.76877,-53.44642 0.35623,-12.8125 11.875,-0.71871 c 12.02254,-0.72764 17.50049,-2.50951 21.41471,-6.96582 9.95982,-11.33915 7.31995,-30.10635 -5.11707,-36.37797 -5.0814,-2.5624 -7.33232,-2.8125 -25.3125,-2.8125 l -19.73514,0 0,36.25 0,36.25 8.08127,0 8.08127,0 0.35623,-12.8125 z m 0.56456,-29.27084 c -1.7033,-1.7033 -0.86895,-13.83099 1.06177,-15.43334 2.52578,-2.09621 15.33792,-0.6124 18.36479,2.12688 3.07662,2.7843 2.83265,8.49037 -0.49559,11.5911 -2.13774,1.99161 -4.4146,2.5487 -10.41667,2.5487 -4.22453,0 -8.05596,-0.375 -8.5143,-0.83334 z m 90.55429,40.15978 c 10.34399,-3.64956 16.19709,-11.80509 18.67198,-26.01694 2.60646,-14.96741 -1.6298,-30.1916 -10.59024,-38.05896 -6.4939,-5.70172 -11.52728,-6.68682 -31.96936,-6.25681 l -18.125,0.38127 -0.33313,34.35726 c -0.18322,18.89649 -0.0602,35.06837 0.27327,35.9375 0.94009,2.44982 34.9423,2.17235 42.07248,-0.34332 z m -23.57512,-12.58898 c -1.16065,-0.51685 -1.5625,-6.11254 -1.5625,-21.7574 0,-24.13493 -0.36329,-23.4523 11.60492,-21.80625 11.22097,1.54328 14.3063,5.26726 15.40397,18.5925 0.80821,9.81137 -1.61875,19.1333 -5.75889,22.11984 -3.12003,2.25066 -16.63939,4.20865 -19.6875,2.85131 z m 69.6875,-0.48746 0.625,-14.375 14.0625,-0.35344 14.0625,-0.35343 0,-6.79313 0,-6.79312 -14.0625,-0.35344 -14.0625,-0.35344 -0.37644,-6.52264 c -0.45375,-7.86204 -0.77963,-7.72284 19.12644,-8.16911 l 13.75,-0.30825 0,-6.25 0,-6.25 -25,0 -25,0 -0.33312,34.35726 c -0.18323,18.89649 -0.0499,35.0954 0.29631,35.99757 0.44911,1.17036 2.87235,1.53357 8.45814,1.26773 l 7.82867,-0.37256 0.625,-14.375 z m 135,-67.19893 c 0,-0.52192 -11.53125,-12.4699 -25.625,-26.55107 l -25.625,-25.60213 0,26.55107 0,26.55106 25.625,0 c 14.09375,0 25.625,-0.42702 25.625,-0.94893 z"
         id="path4159"
         inkscape:connector-curvature="0" />
      <path
         style="fill:#ef6066"
         d="m 395.45118,737.50167 c -6.94485,-8.42492 -23.0861,-27.96674 -35.86945,-43.42625 -12.78335,-15.4595 -23.24245,-28.80207 -23.24245,-29.65015 0,-1.12369 4.32313,-1.63685 15.9375,-1.8918 l 15.9375,-0.34985 0.625,-46.25 0.625,-46.25 38.75,0 38.75,0 0.625,46.25 0.625,46.25 15.625,0.625 c 11.16605,0.44664 15.625,1.06245 15.625,2.15791 0,0.8431 -8.97951,12.37435 -19.95447,25.625 -10.97497,13.25065 -26.68014,32.24834 -34.90041,42.21709 -8.22026,9.96875 -15.30262,18.54938 -15.73857,19.06805 -0.43595,0.51868 -6.4748,-5.95007 -13.41965,-14.375 z m -205.3619,-234.69305 0,-213.75 127.84722,0 127.84723,0 47.77777,47.77778 47.77778,47.77778 0,165.97222 0,165.97222 -39.375,0 c -30.6761,0 -39.3711,-0.3452 -39.35733,-1.5625 0.01,-0.85937 2.86883,-4.79687 6.35355,-8.75 l 6.33588,-7.1875 23.51271,0 c 20.28741,0 23.61679,-0.27122 24.27145,-1.97724 0.41731,-1.08747 0.75874,-67.63122 0.75874,-147.875 0,-111.80937 -0.35046,-146.24823 -1.5,-147.39776 -1.10441,-1.10441 -12.09046,-1.5 -41.65711,-1.5 l -40.1571,0 -2.7179,-2.89306 c -2.68045,-2.85322 -2.71789,-3.47819 -2.71789,-45.375 0,-31.37484 -0.39219,-42.87412 -1.5,-43.98194 -1.98729,-1.98729 -219.87869,-2.18807 -223.58218,-0.20602 -2.28268,1.22165 -2.41782,2.89852 -2.41782,30 l 0,28.70602 104.27277,0 c 57.35002,0 105.16252,0.34143 106.24999,0.75874 1.64334,0.6306 1.97724,3.17048 1.97724,15.04014 0,15.73057 1.19214,20.1354 7.0125,25.91057 4.94595,4.90754 8.2395,6.05512 19.8625,6.92078 l 10,0.74477 0,34.375 0,34.375 -124.375,0.64619 c -68.40625,0.35541 -124.51563,0.77729 -124.6875,0.9375 -0.69689,0.64964 -0.2559,208.98434 0.44624,210.81407 0.67861,1.76844 7.72782,1.97724 66.75131,1.97724 l 65.99259,0 6.46823,7.46637 c 3.55753,4.10652 6.11124,8.04402 5.6749,8.75 -0.52954,0.85685 -27.78285,1.28363 -81.96954,1.28363 l -81.17623,0 0,-213.75 z m 42.76877,-52.8125 0.35623,-12.8125 11.875,-0.71871 c 12.02254,-0.72764 17.50049,-2.50951 21.41471,-6.96582 9.95982,-11.33915 7.31995,-30.10635 -5.11707,-36.37797 -5.0814,-2.5624 -7.33232,-2.8125 -25.3125,-2.8125 l -19.73514,0 0,36.25 0,36.25 8.08127,0 8.08127,0 0.35623,-12.8125 z m 0.56456,-29.27084 c -1.7033,-1.7033 -0.86895,-13.83099 1.06177,-15.43334 2.52578,-2.09621 15.33792,-0.6124 18.36479,2.12688 3.07662,2.7843 2.83265,8.49037 -0.49559,11.5911 -2.13774,1.99161 -4.4146,2.5487 -10.41667,2.5487 -4.22453,0 -8.05596,-0.375 -8.5143,-0.83334 z m 90.55429,40.15978 c 10.34399,-3.64956 16.19709,-11.80509 18.67198,-26.01694 2.60646,-14.96741 -1.6298,-30.1916 -10.59024,-38.05896 -6.4939,-5.70172 -11.52728,-6.68682 -31.96936,-6.25681 l -18.125,0.38127 -0.33313,34.35726 c -0.18322,18.89649 -0.0602,35.06837 0.27327,35.9375 0.94009,2.44982 34.9423,2.17235 42.07248,-0.34332 z m -23.57512,-12.58898 c -1.16065,-0.51685 -1.5625,-6.11254 -1.5625,-21.7574 0,-24.13493 -0.36329,-23.4523 11.60492,-21.80625 11.22097,1.54328 14.3063,5.26726 15.40397,18.5925 0.80821,9.81137 -1.61875,19.1333 -5.75889,22.11984 -3.12003,2.25066 -16.63939,4.20865 -19.6875,2.85131 z m 69.6875,-0.48746 0.625,-14.375 14.0625,-0.35344 14.0625,-0.35343 0,-6.79313 0,-6.79312 -14.0625,-0.35344 -14.0625,-0.35344 -0.37644,-6.52264 c -0.45375,-7.86204 -0.77963,-7.72284 19.12644,-8.16911 l 13.75,-0.30825 0,-6.25 0,-6.25 -25,0 -25,0 -0.33312,34.35726 c -0.18323,18.89649 -0.0499,35.0954 0.29631,35.99757 0.44911,1.17036 2.87235,1.53357 8.45814,1.26773 l 7.82867,-0.37256 0.625,-14.375 z M 508.07079,381.7908 c 0.34598,-0.55981 -11.72867,-13.35668 -26.83256,-28.4375 -21.91456,-21.88111 -27.7039,-27.04094 -28.66114,-25.54468 -1.29736,2.02793 -1.7287,49.7663 -0.47907,53.02277 0.65981,1.71944 4.31716,1.97723 28.05122,1.97723 15.01088,0 27.57556,-0.45802 27.92155,-1.01782 z"
         id="path4157"
         inkscape:connector-curvature="0" />
      <path
         style="fill:#ed3b43"
         d="m 405.06368,747.31499 c -28.67875,-34.26836 -67.47419,-81.59893 -67.47428,-82.31887 -7e-5,-0.51562 6.63738,-0.9375 14.74988,-0.9375 9.80555,0 15.25282,-0.50283 16.25,-1.5 1.11158,-1.11157 1.5,-13.25 1.5,-46.875 l 0,-45.375 38.10979,0 38.10978,0 0.32772,46.5625 0.32771,46.5625 15.9375,0.34985 c 8.76563,0.19241 15.93386,0.75491 15.92942,1.25 -0.005,0.49507 -2.16985,3.4314 -4.81203,6.52515 -2.64219,3.09375 -18.5407,22.23784 -35.33004,42.54243 l -30.52605,36.91743 -3.0994,-3.70348 z m -214.9744,-244.50637 0,-213.75 127.84722,0 127.84723,0 47.77777,47.77778 47.77778,47.77778 0,165.97222 0,165.97222 -39.375,0 c -30.6761,0 -39.3711,-0.3452 -39.35733,-1.5625 0.01,-0.85937 2.86883,-4.79687 6.35355,-8.75 l 6.33588,-7.1875 23.51271,0 c 20.28741,0 23.61679,-0.27122 24.27145,-1.97724 0.41731,-1.08747 0.75874,-67.63122 0.75874,-147.875 0,-111.80937 -0.35046,-146.24823 -1.5,-147.39776 -1.10441,-1.10441 -12.09046,-1.5 -41.65711,-1.5 l -40.1571,0 -2.7179,-2.89306 c -2.68045,-2.85322 -2.71789,-3.47819 -2.71789,-45.375 0,-31.37484 -0.39219,-42.87412 -1.5,-43.98194 -2.22829,-2.22829 -220.86094,-2.16631 -223.91035,0.0635 -1.92794,1.40975 -2.10507,4.39025 -1.80141,30.3125 l 0.33676,28.74903 105,0.625 105,0.625 0.625,15 c 0.55625,13.35 0.98964,15.62023 3.93992,20.63844 4.63942,7.89128 11.62817,11.58084 23.56008,12.43805 l 9.375,0.67351 0,33.75 0,33.75 -124.0625,0.31856 -124.0625,0.31858 0,104.8917 c 0,57.69042 0.34143,105.78145 0.75874,106.86892 0.67861,1.76844 7.72782,1.97724 66.75131,1.97724 l 65.99259,0 6.46823,7.46637 c 3.55753,4.10652 6.11124,8.04402 5.6749,8.75 -0.52954,0.85685 -27.78285,1.28363 -81.96954,1.28363 l -81.17623,0 0,-213.75 z m 43.48123,-52.1875 0.35623,-12.8125 7.39474,0 c 16.46848,0 25.64001,-4.35446 30.16822,-14.32329 6.06273,-13.34706 -0.62065,-29.60084 -13.60974,-33.09844 -3.04219,-0.81917 -12.82164,-1.2527 -23.67449,-1.04949 l -18.49119,0.34622 -0.33247,35.60896 c -0.18286,19.58494 -0.05,36.34519 0.29533,37.24501 0.45213,1.17823 2.99366,1.53251 9.08247,1.26603 l 8.45467,-0.37 0.35623,-12.8125 z m 0.51889,-37.5 0.37488,-7.1875 6.25,-0.3243 c 7.96012,-0.41303 12.37223,1.77531 12.90619,6.40131 0.68723,5.95378 -2.67804,8.29799 -11.9123,8.29799 l -7.99365,0 0.37488,-7.1875 z m 92.24988,47.97165 c 12.33572,-6.52464 17.5,-16.71573 17.5,-34.53415 0,-14.43847 -2.95859,-22.7999 -10.5403,-29.78847 -2.99638,-2.76196 -7.61623,-5.62381 -10.26633,-6.35967 -6.81757,-1.89304 -39.51908,-1.77615 -41.44337,0.14814 -2.1922,2.1922 -2.13354,69.85517 0.0625,72.09031 1.16824,1.18904 6.45126,1.48529 20.9375,1.1741 15.89351,-0.34143 20.16114,-0.83204 23.75,-2.73026 z m -25.3125,-13.98545 c -0.51562,-0.53095 -0.9375,-10.22987 -0.9375,-21.55317 l 0,-20.58781 7.87998,0.63253 c 8.871,0.71208 12.51848,2.4887 14.66369,7.14238 3.90125,8.46311 2.36333,27.50159 -2.58318,31.97812 -2.49355,2.25665 -17.34057,4.12037 -19.02299,2.38795 z m 68.8125,15.4513 c 0.98091,-0.98091 1.5,-6.15758 1.5,-14.95906 l 0,-13.45907 14.0625,-0.35343 14.0625,-0.35344 0,-7.5 0,-7.5 -14.0625,-0.35344 -14.0625,-0.35343 0,-6.17279 0,-6.17278 16.5625,-0.34878 16.5625,-0.34878 0.39949,-4.88085 c 0.21971,-2.68446 0.0684,-6.20009 -0.33633,-7.8125 l -0.73579,-2.93165 -24.72618,0 c -17.56482,0 -25.16063,0.43444 -26.22619,1.5 -2.13916,2.13916 -2.13916,69.86084 0,72 0.825,0.825 4.65,1.5 8.5,1.5 3.85,0 7.675,-0.675 8.5,-1.5 z M 508.07079,381.7908 c 0.34598,-0.55981 -11.72867,-13.35668 -26.83256,-28.4375 -21.91456,-21.88111 -27.7039,-27.04094 -28.66114,-25.54468 -1.29736,2.02793 -1.7287,49.7663 -0.47907,53.02277 0.65981,1.71944 4.31716,1.97723 28.05122,1.97723 15.01088,0 27.57556,-0.45802 27.92155,-1.01782 z"
         id="path4155"
         inkscape:connector-curvature="0" />
      <path
         style="fill:#6c6d6f"
         d="m 396.77609,735.84533 c -6.084,-7.40557 -21.63164,-26.16526 -34.55031,-41.6882 l -23.4885,-28.22351 14.7385,-0.338 c 12.04814,-0.2763 15.02371,-0.71921 16.301,-2.42641 1.18202,-1.57988 1.5625,-12.98779 1.5625,-46.8495 l 0,-44.76109 36.875,0 36.875,0 0,44.76109 c 0,33.86171 0.38048,45.26962 1.5625,46.8495 1.27437,1.70331 4.23841,2.15075 16.07381,2.42641 l 14.51133,0.338 -33.45754,40.44623 c -18.40165,22.24541 -34.01643,41.0051 -34.69951,41.68818 -0.82263,0.82263 -4.97693,-3.3043 -12.30378,-12.2227 z m -206.68681,-193.85167 0,-174.56496 13.31945,0.81496 c 7.3257,0.44823 58.45396,0.81496 113.61835,0.81496 l 100.29889,0 0.45836,14.6875 c 0.40014,12.8214 0.85361,15.39567 3.56916,20.26128 4.6733,8.37344 12.6009,12.77363 24.37493,13.52925 l 9.36086,0.60073 0,32.96063 0,32.96061 -122.8125,0.15526 c -67.54687,0.0854 -126.75,0.55939 -131.5625,1.05333 l -8.75,0.89806 7.8125,0.19668 7.8125,0.19667 0,104.27276 c 0,57.35003 0.34143,105.16253 0.75874,106.25 0.67861,1.76844 7.72782,1.97724 66.75131,1.97724 l 65.99259,0 6.46823,7.46637 c 3.55753,4.10652 6.11124,8.04402 5.6749,8.75 -0.52954,0.85685 -27.78285,1.28363 -81.96954,1.28363 l -81.17623,0 0,-174.56496 z m 43.5,-78.18504 c 0.94962,-0.94962 1.5,-5.7263 1.5,-13.01835 l 0,-11.51835 9.6875,-0.80636 c 14.77419,-1.22978 16.3622,-1.75564 22.17129,-7.34204 6.98125,-6.71364 9.05564,-13.56541 7.05861,-23.3149 -2.14413,-10.46764 -7.75899,-16.62764 -17.13914,-18.80316 -7.51261,-1.74238 -39.71782,-1.50728 -41.52826,0.30316 -2.14094,2.14094 -2.14094,72.35906 0,74.5 0.8388,0.8388 4.86111,1.5 9.125,1.5 4.26389,0 8.2862,-0.6612 9.125,-1.5 z m 1.5,-50.2029 0,-7.0471 6.33218,0 c 8.21575,0 11.16782,1.62327 11.16782,6.14092 0,4.77179 -1.98272,6.12953 -10.39483,7.11821 l -7.10517,0.83507 0,-7.0471 z m 93.43316,47.42403 c 12.01516,-6.62069 17.28053,-18.85426 16.32243,-37.92367 -0.90459,-18.00451 -8.29563,-29.53221 -21.43685,-33.43473 -6.93345,-2.05901 -41.40931,-2.69098 -42.58993,-0.7807 -0.3678,0.59511 -0.71298,17.55855 -0.76706,37.69652 -0.0773,28.79744 0.24983,36.85069 1.53245,37.72084 0.89694,0.6085 10.34955,0.93291 21.0058,0.72091 18.67233,-0.37148 19.61285,-0.51651 25.93316,-3.99918 z m -27.88327,-16.09112 c -0.3419,-0.89099 -0.46487,-9.75036 -0.27327,-19.6875 l 0.34838,-18.06751 6.25,-0.3243 c 11.82218,-0.61343 16.92353,5.36741 16.8025,19.6993 -0.0861,10.19839 -2.15535,16.35717 -6.1775,18.38649 -4.20123,2.11965 -16.13599,2.1151 -16.95011,-0.006 z m 69.09262,19.36739 c 1.00039,-0.63573 1.63933,-5.63417 1.875,-14.66836 l 0.35749,-13.70404 13.05281,-0.35889 c 7.17904,-0.19737 13.78842,-0.96937 14.6875,-1.71555 0.96677,-0.80235 1.63469,-4.04067 1.63469,-7.92556 0,-3.88489 -0.66792,-7.12321 -1.63469,-7.92556 -0.89908,-0.74618 -7.50846,-1.51818 -14.6875,-1.71555 l -13.05281,-0.35889 0,-4.375 0,-4.375 15.625,-0.33697 c 17.62782,-0.38016 18.75,-0.94029 18.75,-9.35912 0,-9.8868 0.60345,-9.67891 -28.09521,-9.67891 -16.15795,0 -25.79901,0.47209 -26.30327,1.28798 -0.43781,0.7084 -0.77751,17.67521 -0.75489,37.70405 0.0321,28.40877 0.39702,36.64182 1.65975,37.44287 2.04841,1.29946 14.86492,1.3469 16.88613,0.0625 z m 92.87516,250.6901 c 0.01,-0.85937 2.86883,-4.79687 6.35355,-8.75 l 6.33588,-7.1875 23.51271,0 c 20.28741,0 23.61679,-0.27122 24.27145,-1.97724 0.41731,-1.08747 0.75874,-67.63122 0.75874,-147.875 0,-111.80937 -0.35046,-146.24823 -1.5,-147.39776 -1.10441,-1.10441 -12.09046,-1.5 -41.65711,-1.5 l -40.1571,0 -2.7179,-2.89306 c -2.68045,-2.85322 -2.71789,-3.47819 -2.71789,-45.375 0,-31.37484 -0.39219,-42.87412 -1.5,-43.98194 -1.98729,-1.98729 -219.87869,-2.18807 -223.58218,-0.20602 -2.28268,1.22165 -2.41782,2.89852 -2.41782,30 l 0,28.70602 -8.75,0 -8.75,0 0,-38.75 0,-38.75 127.84722,0 127.84723,0 47.77777,47.77778 47.77778,47.77778 0,165.97222 0,165.97222 -39.375,0 c -30.6761,0 -39.3711,-0.3452 -39.35733,-1.5625 z M 508.07079,381.7908 c 0.34598,-0.55981 -11.72867,-13.35668 -26.83256,-28.4375 -21.91456,-21.88111 -27.7039,-27.04094 -28.66114,-25.54468 -1.29736,2.02793 -1.7287,49.7663 -0.47907,53.02277 0.65981,1.71944 4.31716,1.97723 28.05122,1.97723 15.01088,0 27.57556,-0.45802 27.92155,-1.01782 z"
         id="path4153"
         inkscape:connector-curvature="0" />
      <path
         style="fill:#eb1b23"
         d="m 396.77609,735.84533 c -6.084,-7.40557 -21.63164,-26.16526 -34.55031,-41.6882 l -23.4885,-28.22351 14.7385,-0.338 c 12.04814,-0.2763 15.02371,-0.71921 16.301,-2.42641 1.18202,-1.57988 1.5625,-12.98779 1.5625,-46.8495 l 0,-44.76109 36.875,0 36.875,0 0,44.76109 c 0,33.86171 0.38048,45.26962 1.5625,46.8495 1.27437,1.70331 4.23841,2.15075 16.07381,2.42641 l 14.51133,0.338 -33.45754,40.44623 c -18.40165,22.24541 -34.01643,41.0051 -34.69951,41.68818 -0.82263,0.82263 -4.97693,-3.3043 -12.30378,-12.2227 z m -206.68681,-193.71794 0,-174.69869 13.31945,0.81496 c 7.3257,0.44823 58.45396,0.81496 113.61835,0.81496 l 100.29889,0 0.45836,14.6875 c 0.40014,12.8214 0.85361,15.39567 3.56916,20.26128 4.6733,8.37344 12.6009,12.77363 24.37493,13.52925 l 9.36086,0.60073 0,32.96063 0,32.96061 -122.8125,0.15526 c -67.54687,0.0854 -126.75,0.55939 -131.5625,1.05333 l -8.75,0.89806 7.1875,0.19668 7.1875,0.19667 0,104.89776 c 0,57.69378 0.34143,105.78753 0.75874,106.875 0.67864,1.76853 7.74398,1.97724 66.93468,1.97724 l 66.17596,0 3.19512,3.4375 c 4.80722,5.17189 7.95004,9.8813 7.13689,10.69444 -0.39861,0.39861 -35.81377,0.77246 -78.70036,0.83076 -42.88659,0.0583 -78.82508,0.43198 -79.86332,0.83039 -1.67806,0.64394 -1.88771,-18.67738 -1.88771,-173.97432 z m 43.5,-78.31877 c 0.94962,-0.94962 1.5,-5.7263 1.5,-13.01835 l 0,-11.51835 9.6875,-0.80636 c 14.77419,-1.22978 16.3622,-1.75564 22.17129,-7.34204 6.98125,-6.71364 9.05564,-13.56541 7.05861,-23.3149 -2.14413,-10.46764 -7.75899,-16.62764 -17.13914,-18.80316 -7.51261,-1.74238 -39.71782,-1.50728 -41.52826,0.30316 -2.14094,2.14094 -2.14094,72.35906 0,74.5 0.8388,0.8388 4.86111,1.5 9.125,1.5 4.26389,0 8.2862,-0.6612 9.125,-1.5 z m 1.5,-50.2029 0,-7.0471 6.33218,0 c 8.21575,0 11.16782,1.62327 11.16782,6.14092 0,4.77179 -1.98272,6.12953 -10.39483,7.11821 l -7.10517,0.83507 0,-7.0471 z m 93.43316,47.42403 c 12.01516,-6.62069 17.28053,-18.85426 16.32243,-37.92367 -0.90459,-18.00451 -8.29563,-29.53221 -21.43685,-33.43473 -6.93345,-2.05901 -41.40931,-2.69098 -42.58993,-0.7807 -0.3678,0.59511 -0.71298,17.55855 -0.76706,37.69652 -0.0773,28.79744 0.24983,36.85069 1.53245,37.72084 0.89694,0.6085 10.34955,0.93291 21.0058,0.72091 18.67233,-0.37148 19.61285,-0.51651 25.93316,-3.99918 z m -27.88327,-16.09112 c -0.3419,-0.89099 -0.46487,-9.75036 -0.27327,-19.6875 l 0.34838,-18.06751 6.25,-0.3243 c 11.82218,-0.61343 16.92353,5.36741 16.8025,19.6993 -0.0861,10.19839 -2.15535,16.35717 -6.1775,18.38649 -4.20123,2.11965 -16.13599,2.1151 -16.95011,-0.006 z m 69.09262,19.36739 c 1.00039,-0.63573 1.63933,-5.63417 1.875,-14.66836 l 0.35749,-13.70404 13.05281,-0.35889 c 7.17904,-0.19737 13.78842,-0.96937 14.6875,-1.71555 0.96677,-0.80235 1.63469,-4.04067 1.63469,-7.92556 0,-3.88489 -0.66792,-7.12321 -1.63469,-7.92556 -0.89908,-0.74618 -7.50846,-1.51818 -14.6875,-1.71555 l -13.05281,-0.35889 0,-4.375 0,-4.375 15.625,-0.33697 c 17.62782,-0.38016 18.75,-0.94029 18.75,-9.35912 0,-9.8868 0.60345,-9.67891 -28.09521,-9.67891 -16.15795,0 -25.79901,0.47209 -26.30327,1.28798 -0.43781,0.7084 -0.77751,17.67521 -0.75489,37.70405 0.0321,28.40877 0.39702,36.64182 1.65975,37.44287 2.04841,1.29946 14.86492,1.3469 16.88613,0.0625 z m 131.75644,251.03021 -37.97604,-0.65261 4.63198,-5.625 c 7.46851,-9.06962 6.29774,-8.75 32.05028,-8.75 20.16398,0 23.48165,-0.27179 24.13609,-1.97724 0.41731,-1.08747 0.75874,-68.19372 0.75874,-149.125 0,-112.78158 -0.35032,-147.49808 -1.5,-148.64776 -1.10475,-1.10475 -12.13889,-1.5 -41.875,-1.5 -38.70834,0 -40.4782,-0.1032 -42.875,-2.5 -2.40329,-2.40328 -2.5,-4.16667 -2.5,-45.58102 0,-41.31362 -0.0992,-43.13411 -2.41782,-44.375 -3.35577,-1.79595 -221.8086,-1.79595 -225.16436,0 -2.28497,1.22288 -2.41782,2.9056 -2.41782,30.625 l 0,29.33102 -8.125,0 -8.125,0 0,-38.1191 0,-38.11911 127.53436,-0.3184 127.53435,-0.31839 48.09065,48.09073 48.09064,48.09072 0,165.34678 c 0,90.94072 -0.42187,165.21857 -0.9375,165.06188 -0.51562,-0.15667 -18.02673,-0.57855 -38.91355,-0.9375 z m 5.16355,-330.85792 c 2.13965,-0.38488 3.4375,-1.41076 3.4375,-2.71716 0,-1.15436 -12.29564,-14.38495 -27.32364,-29.4013 -19.70375,-19.68848 -27.98286,-27.17574 -29.6875,-26.84805 -2.2153,0.42586 -2.3861,2.1032 -2.71759,26.68812 -0.38523,28.57111 -0.10299,31.43634 3.16708,32.15881 3.29085,0.72704 49.1729,0.83032 53.12415,0.11957 z"
         id="path4151"
         inkscape:connector-curvature="0" />
      <path
         style="fill:#56575a"
         d="m 190.08928,600.93362 c 0,-105.16523 0.18302,-115.82224 1.97723,-115.13374 1.08748,0.41731 4.74373,0.75874 8.125,0.75874 l 6.14777,0 0,104.89776 c 0,57.69378 0.34143,105.78753 0.75874,106.875 0.67864,1.76853 7.74398,1.97724 66.93468,1.97724 l 66.17596,0 3.19512,3.4375 c 4.80722,5.17189 7.95004,9.8813 7.13689,10.69444 -0.39861,0.39861 -35.81377,0.77246 -78.70036,0.83076 -42.88659,0.0583 -78.82508,0.43198 -79.86332,0.83039 -1.67525,0.64285 -1.88771,-12.31933 -1.88771,-115.16809 z m 311.39895,114.40261 -37.97604,-0.65261 4.63198,-5.625 c 7.46851,-9.06962 6.29774,-8.75 32.05028,-8.75 20.16398,0 23.48165,-0.27179 24.13609,-1.97724 0.41731,-1.08747 0.75874,-68.19372 0.75874,-149.125 0,-112.78158 -0.35032,-147.49808 -1.5,-148.64776 -1.10475,-1.10475 -12.13889,-1.5 -41.875,-1.5 -38.70834,0 -40.4782,-0.1032 -42.875,-2.5 -2.40329,-2.40328 -2.5,-4.16667 -2.5,-45.58102 0,-41.31362 -0.0992,-43.13411 -2.41782,-44.375 -3.35577,-1.79595 -221.8086,-1.79595 -225.16436,0 -2.28497,1.22288 -2.41782,2.9056 -2.41782,30.625 l 0,29.33102 -8.125,0 -8.125,0 0,-38.1191 0,-38.11911 127.53436,-0.3184 127.53435,-0.31839 48.09065,48.09073 48.09064,48.09072 0,165.34678 c 0,90.94072 -0.42187,165.21857 -0.9375,165.06188 -0.51562,-0.15667 -18.02673,-0.57855 -38.91355,-0.9375 z m 5.16355,-330.85792 c 2.13965,-0.38488 3.4375,-1.41076 3.4375,-2.71716 0,-1.15436 -12.29564,-14.38495 -27.32364,-29.4013 -19.70375,-19.68848 -27.98286,-27.17574 -29.6875,-26.84805 -2.2153,0.42586 -2.3861,2.1032 -2.71759,26.68812 -0.38523,28.57111 -0.10299,31.43634 3.16708,32.15881 3.29085,0.72704 49.1729,0.83032 53.12415,0.11957 z"
         id="path4149"
         inkscape:connector-curvature="0" />
    </g>
    <rect
       style="fill:#000000;fill-opacity:0"
       id="rect5597"
       width="354.28571"
       height="431.42856"
       x="-35.714287"
       y="303.07648" />
    <rect
       style="fill:#ffffff;fill-opacity:0"
       id="rect5607"
       width="354.28574"
       height="434.28571"
       x="187.14285"
       y="303.79077"
       inkscape:export-xdpi="90"
       inkscape:export-ydpi="90" />
  </g>
</svg>
